<svg width="32" height="32" viewBox="0 0 32 32" fill="none" xmlns="http://www.w3.org/2000/svg">
<mask id="mask0_134_2875" style="mask-type:alpha" maskUnits="userSpaceOnUse" x="0" y="0" width="32" height="32">
<rect width="32" height="32" fill="#D9D9D9"/>
</mask>
<g mask="url(#mask0_134_2875)">
<path d="M5.74383 26C5.07027 26 4.50016 25.7667 4.0335 25.3C3.56683 24.8333 3.3335 24.2632 3.3335 23.5897V8.41033C3.3335 7.73678 3.56683 7.16667 4.0335 6.7C4.50016 6.23333 5.07027 6 5.74383 6H26.2565C26.9301 6 27.5002 6.23333 27.9668 6.7C28.4335 7.16667 28.6668 7.73678 28.6668 8.41033V23.5897C28.6668 24.2632 28.4335 24.8333 27.9668 25.3C27.5002 25.7667 26.9301 26 26.2565 26H5.74383ZM5.3335 15.4613H26.6668V11.2053H5.3335V15.4613Z" fill="#C8F135"/>
</g>
</svg>
