<svg width="38" height="38" viewBox="0 0 38 38" fill="none" xmlns="http://www.w3.org/2000/svg">
<rect x="0.791016" y="0.791016" width="36.3867" height="36.3867" rx="8.70117" stroke="#C8F135" stroke-width="1.58203"/>
<path d="M27.5676 9.52228C29.3138 9.2823 30.9237 10.5038 31.1629 12.2501C31.4021 13.9964 30.1799 15.6058 28.4335 15.8442C26.6882 16.0825 25.08 14.8612 24.8409 13.116C24.6019 11.3708 25.8224 9.76209 27.5676 9.52228Z" fill="#C8F135"/>
<path d="M6.77588 13.1309L12.0866 25.1109C12.5747 26.2119 14.1794 26.0733 14.4715 24.905L17.4146 13.1325C17.4925 12.8211 17.931 12.8101 18.0243 13.1172L21.5814 24.8213C21.9254 25.9532 23.4961 26.0363 23.9577 24.947L26.5513 18.8262" stroke="#C8F135" stroke-width="3.16406" stroke-linecap="round"/>
</svg>
