<svg width="32" height="32" viewBox="0 0 32 32" fill="none" xmlns="http://www.w3.org/2000/svg">
<mask id="mask0_134_2880" style="mask-type:alpha" maskUnits="userSpaceOnUse" x="0" y="0" width="32" height="32">
<rect width="32" height="32" fill="#D9D9D9"/>
</mask>
<g mask="url(#mask0_134_2880)">
<path d="M11.3845 27.3333H7.07684C6.40328 27.3333 5.83317 27.1 5.3665 26.6333C4.89984 26.1666 4.6665 25.5965 4.6665 24.923V16C4.6665 14.4273 4.96395 12.9538 5.55884 11.5796C6.15373 10.2052 6.96228 9.00685 7.9845 7.98463C9.00673 6.9624 10.2051 6.15385 11.5795 5.55896C12.9537 4.96407 14.4272 4.66663 15.9998 4.66663C17.5725 4.66663 19.0459 4.96407 20.4202 5.55896C21.7946 6.15385 22.9929 6.9624 24.0152 7.98463C25.0374 9.00685 25.8459 10.2052 26.4408 11.5796C27.0357 12.9538 27.3332 14.4273 27.3332 16V24.923C27.3332 25.5965 27.0998 26.1666 26.6332 26.6333C26.1665 27.1 25.5964 27.3333 24.9228 27.3333H20.6152V17.8973H25.3332V16C25.3332 13.4 24.4276 11.1944 22.6165 9.38329C20.8054 7.57218 18.5998 6.66663 15.9998 6.66663C13.3998 6.66663 11.1943 7.57218 9.38317 9.38329C7.57206 11.1944 6.6665 13.4 6.6665 16V17.8973H11.3845V27.3333Z" fill="#C8F135"/>
</g>
</svg>
