<svg width="372" height="235" viewBox="0 0 372 235" fill="none" xmlns="http://www.w3.org/2000/svg">
<path d="M7.84576 100.13C-1.91743 108.079 -2.91871 122.359 6.81973 130.466C31.5723 151.071 61.726 165.255 95.1715 166.906C106.609 167.553 118.083 166.745 129.298 164.496C133.555 163.645 137.682 162.437 141.758 161.593C149.857 169.639 157.986 177.284 167.115 184.335C194.624 205.58 228.58 223.091 263.306 230.238C276.265 232.907 291.511 234.103 304.703 234.409C328.186 234.954 339.238 234.712 357.297 230.488C365.802 228.499 371.554 221.054 371.612 212.655L371.624 210.951C371.714 197.927 357.035 186.941 343.832 189.959C330.612 192.981 319.96 191.72 299.579 190.689C287.422 190.075 274.199 188.576 262.5 185.157C239.42 178.408 216.722 166.472 197.915 152.044C193.461 148.627 187.245 143.695 183.44 139.675C214.001 114.149 234.221 70.8646 216.131 33.2832C209.559 19.4484 197.506 8.68272 182.63 3.35996C150.084 -8.0248 113.776 10.7451 102.18 41.2317C94.2392 62.1065 97.9659 85.8171 105.644 106.224C107.784 111.91 110.508 117.375 113.206 122.841C87.4592 126.835 61.454 116.653 41.1222 101.107C31.3711 93.6512 17.2878 92.4426 7.84576 100.13ZM164.218 43.5855C168.454 44.4922 171.373 46.1698 173.688 49.8232C178.234 57.0894 177.947 65.3173 175.884 73.2475C173.154 83.7478 167.355 93.3841 159.537 101.167C158.54 102.159 156.452 104.216 155.257 104.814C154.846 104.58 154.901 104.692 154.681 104.35C147.248 91.0731 140.533 72.5254 144.651 57.3505C146.736 49.6602 155.839 43.3806 164.218 43.5855Z" fill="#C8F135" fill-opacity="0.1"/>
</svg>
