<svg width="34" height="53" viewBox="0 0 34 53" fill="none" xmlns="http://www.w3.org/2000/svg">
<path d="M23.116 0C23.4454 0.476381 23.2152 7.7832 23.1983 8.98407C20.9494 11.5001 17.1507 15.0689 14.6843 17.5403C9.95004 22.3394 5.17145 27.0937 0.34852 31.8026L0.19435 31.6994C-0.0146997 29.7966 0.118341 24.9912 0.124676 22.8679C7.86375 15.3341 15.379 7.52897 23.116 0Z" fill="#F5F4F0"/>
<path d="M33.032 21.7139C33.5409 22.458 33.258 28.0523 33.2284 29.3452C25.6498 36.9023 18.0121 44.7588 10.3259 52.1693C9.95843 51.6089 10.1569 45.5618 10.1717 44.5018C17.1506 37.2062 25.7702 28.7637 33.032 21.7139Z" fill="#F5F4F0"/>
<path d="M33.2216 1.43262C33.4222 2.47301 33.2659 7.69524 33.2448 9.01648C25.9893 16.6616 17.7287 24.4554 10.2324 32.0289C10.055 30.9218 10.1332 25.7679 10.1311 24.4142C17.7413 16.8823 25.5226 8.77175 33.2216 1.43262Z" fill="#F5F4F0"/>
<path d="M23.0609 21.9399C23.5677 22.7128 23.2046 27.825 23.156 29.0882C21.2555 31.3041 17.499 34.8238 15.343 36.9825L0.190051 52.2156C-0.116134 50.2645 0.369533 47.3414 0 44.992C6.86909 37.6896 15.8223 29.0149 23.0609 21.9399Z" fill="#F5F4F0"/>
</svg>
