<svg width="63" height="53" viewBox="0 0 63 53" fill="none" xmlns="http://www.w3.org/2000/svg">
<path d="M38.4457 22.5008C43.5452 22.3573 58.235 22.9199 62.661 24.7787C55.0126 24.0963 50.5132 23.7012 42.7174 24.5325C45.1723 28.6808 47.591 32.8505 49.9733 37.041C45.7789 36.8241 40.598 36.9697 36.3102 36.9724L10.1587 36.9634C9.51754 38.2904 9.29976 38.9661 8.85201 40.3607C8.57216 46.4996 14.103 50.4143 19.1447 52.6318L19.5396 52.8029L19.5051 52.9999C11.147 50.9477 -7.05506 43.5284 2.89969 32.878C10.1746 25.0945 28.1454 22.6954 38.4457 22.5008Z" fill="#F5F4F0"/>
<path d="M36.1592 25.1885C36.8243 25.2019 39.5397 30.4471 40.0064 31.2759L21.1794 31.2691C19.5437 31.2677 18.2514 31.3182 16.6182 31.4343C22.2458 28.0658 29.8179 26.5035 36.1592 25.1885Z" fill="#0F0F0F"/>
<path d="M28.4152 0C29.0302 0.330766 39.4655 18.7689 40.8458 21.0529C39.1985 20.9487 35.8214 21.0809 34.0714 21.104C32.2689 17.9106 30.3901 14.4415 28.457 11.351L27.6255 12.83C26.0514 15.6272 24.1207 19.2797 22.38 21.8903L15.0137 23.1673C19.5236 15.7918 23.962 7.55417 28.4152 0Z" fill="#F5F4F0"/>
<path d="M28.4188 3.40088C29.1527 3.98077 36.8456 17.8332 37.6411 19.4024L35.1835 19.3443C33.3727 16.2334 30.6517 11.0678 28.7182 8.26684L28.3656 8.23044L27.8295 9.00895C25.6277 12.5876 23.3622 16.6881 21.2775 20.3549C20.3853 20.5298 19.2664 20.6701 18.3496 20.8122C21.7823 15.0528 25.1389 9.24841 28.4188 3.40088Z" fill="#0F0F0F"/>
</svg>
