<svg width="54" height="53" viewBox="0 0 54 53" fill="none" xmlns="http://www.w3.org/2000/svg">
<path d="M23.9819 0.508301C33.5815 0.674458 43.4736 0.565596 53.0955 0.57992C52.9199 8.87058 52.0928 12.93 47.2425 19.6937L39.8041 19.6737C44.4043 15.5427 46.1647 11.7211 47.6255 5.89696C42.1916 5.65059 34.7154 5.7967 29.2385 5.89696C28.7128 20.6477 29.1735 38.0626 29.1932 52.9566L24.6869 52.9394L0 52.9509C0.26843 42.8067 1.18917 39.8159 7.32838 31.7487L16.3713 31.7115C9.68781 36.1719 7.31234 39.6469 5.45969 47.5623L23.9613 47.7084C24.181 32.124 24.004 16.1213 23.9819 0.508301Z" fill="#F5F4F0"/>
<path d="M34.957 23.8767L52.5911 23.8022C52.4567 33.4795 52.5295 43.3114 52.5215 53C46.5 52.9341 43.0356 52.4729 37.61 49.8946L35.0289 48.3791L34.9541 41.4979C39.7718 45.288 41.3738 46.0214 47.191 47.6543C47.2898 41.0138 47.2242 34.1899 47.2366 27.5379L34.9641 27.6038L34.957 23.8767Z" fill="#F5F4F0"/>
<path d="M0.180173 0.00412935C7.25818 -0.081814 12.4623 1.15862 18.2761 5.14926L18.2566 12.1336C13.4372 7.99112 11.631 6.90252 5.47744 5.38706C5.26974 10.8215 5.40009 16.9063 5.4021 22.3895C5.4127 22.7906 5.50264 23.0828 5.58658 23.481C6.97399 24.1972 15.8763 23.8591 18.2773 23.882L18.2071 27.6091L0.102539 27.5604C0.235178 18.4304 0.16012 9.1485 0.180173 0.00412935Z" fill="#F5F4F0"/>
</svg>
