<svg width="32" height="32" viewBox="0 0 32 32" fill="none" xmlns="http://www.w3.org/2000/svg">
<mask id="mask0_134_2885" style="mask-type:alpha" maskUnits="userSpaceOnUse" x="0" y="0" width="32" height="32">
<rect width="32" height="32" fill="#D9D9D9"/>
</mask>
<g mask="url(#mask0_134_2885)">
<path d="M8.66667 26C6.824 26 5.25222 25.3598 3.95133 24.0793C2.65044 22.7991 2 21.2377 2 19.395C2 17.7641 2.52222 16.3137 3.56667 15.0437C4.61111 13.7734 5.94356 13.0221 7.564 12.7897C7.99133 10.7966 8.99356 9.16667 10.5707 7.9C12.1476 6.63333 13.9573 6 16 6C18.412 6 20.4594 6.84144 22.1423 8.52433C23.8252 10.2072 24.6667 12.2547 24.6667 14.6667V15.3333H25.077C26.4821 15.4427 27.6539 16.0077 28.5923 17.0283C29.5308 18.0488 30 19.2616 30 20.6667C30 22.1538 29.4829 23.4144 28.4487 24.4487C27.4144 25.4829 26.1538 26 24.6667 26H8.66667Z" fill="#C8F135"/>
</g>
</svg>
