<svg width="38" height="38" viewBox="0 0 38 38" fill="none" xmlns="http://www.w3.org/2000/svg">
<rect x="0.791016" y="0.791016" width="36.3867" height="36.3867" rx="8.70117" fill="#0F0F0F"/>
<rect x="0.791016" y="0.791016" width="36.3867" height="36.3867" rx="8.70117" stroke="#C8F135" stroke-width="1.58203"/>
<path d="M27.568 9.52228C29.3143 9.2823 30.9242 10.5038 31.1634 12.2501C31.4026 13.9964 30.1804 15.6058 28.434 15.8442C26.6887 16.0825 25.0805 14.8612 24.8414 13.116C24.6024 11.3708 25.8229 9.76209 27.568 9.52228Z" fill="#C8F135"/>
<path d="M6.77637 13.1309L12.0871 25.1109C12.5752 26.2119 14.1799 26.0733 14.472 24.905L17.4151 13.1325C17.493 12.8211 17.9315 12.8101 18.0248 13.1172L21.5819 24.8213C21.9259 25.9532 23.4966 26.0363 23.9582 24.947L26.5518 18.8262" stroke="#C8F135" stroke-width="3.16406" stroke-linecap="round"/>
</svg>
