<svg width="218" height="39" viewBox="0 0 218 39" fill="none" xmlns="http://www.w3.org/2000/svg">
<rect x="0.791016" y="0.806641" width="36.3867" height="36.3867" rx="8.70117" stroke="#C8F135" stroke-width="1.58203"/>
<path d="M27.568 9.53791C29.3143 9.29793 30.9242 10.5194 31.1634 12.2657C31.4026 14.0121 30.1804 15.6214 28.434 15.8599C26.6887 16.0981 25.0805 14.8769 24.8414 13.1317C24.6024 11.3865 25.8229 9.77772 27.568 9.53791Z" fill="#C8F135"/>
<path d="M6.77637 13.1465L12.0871 25.1266C12.5752 26.2275 14.1799 26.089 14.472 24.9206L17.4151 13.1481C17.493 12.8367 17.9315 12.8258 18.0248 13.1329L21.5819 24.8369C21.9259 25.9688 23.4966 26.0519 23.9582 24.9626L26.5518 18.8418" stroke="#C8F135" stroke-width="3.16406" stroke-linecap="round"/>
<path d="M55.0916 32L50.9316 15.968H57.7796L59.9236 26.048L62.4516 15.968H67.9556L70.5156 26.304L72.6596 15.968H78.1316L74.2596 32H66.6116L64.4996 23.84L62.4836 32H55.0916ZM89.7551 27.776C90.3738 27.776 91.0245 27.712 91.7071 27.584C92.4111 27.456 93.1258 27.2213 93.8511 26.88L94.6191 31.008C93.8298 31.4133 92.9658 31.7227 92.0271 31.936C91.1098 32.1493 90.0538 32.256 88.8591 32.256C86.7045 32.256 84.8911 31.904 83.4191 31.2C81.9685 30.496 80.8698 29.5253 80.1231 28.288C79.3765 27.0507 79.0031 25.6213 79.0031 24C79.0031 22.336 79.3978 20.8853 80.1871 19.648C80.9978 18.4107 82.0751 17.4507 83.4191 16.768C84.7631 16.0853 86.2458 15.744 87.8671 15.744C90.2778 15.744 92.1231 16.5013 93.4031 18.016C94.6831 19.5093 95.3231 21.6427 95.3231 24.416L85.7871 25.632C86.4911 27.0613 87.8138 27.776 89.7551 27.776ZM85.2751 22.688L90.2991 21.632C90.2138 20.9493 89.9791 20.448 89.5951 20.128C89.2111 19.7867 88.7311 19.616 88.1551 19.616C87.3018 19.616 86.6191 19.9147 86.1071 20.512C85.6165 21.088 85.3391 21.8133 85.2751 22.688ZM109.521 32.256C108.241 32.256 107.174 31.9787 106.321 31.424C105.468 30.8693 104.785 30.0693 104.273 29.024V32H97.5531V10.912L104.337 9.92V19.264C104.849 18.048 105.574 17.1627 106.513 16.608C107.473 16.032 108.476 15.744 109.521 15.744C111.014 15.744 112.348 16.096 113.521 16.8C114.716 17.4827 115.654 18.432 116.337 19.648C117.041 20.864 117.393 22.2827 117.393 23.904C117.393 25.5253 117.041 26.9653 116.337 28.224C115.654 29.4827 114.716 30.4747 113.521 31.2C112.348 31.904 111.014 32.256 109.521 32.256ZM107.441 27.2C108.358 27.2 109.126 26.8907 109.745 26.272C110.364 25.6533 110.673 24.896 110.673 24C110.673 23.104 110.364 22.3467 109.745 21.728C109.126 21.1093 108.358 20.8 107.441 20.8C106.566 20.8 105.82 21.0987 105.201 21.696C104.582 22.272 104.273 23.0187 104.273 23.936C104.273 24.8533 104.582 25.632 105.201 26.272C105.82 26.8907 106.566 27.2 107.441 27.2ZM133.768 32.256C132.808 32.256 131.837 32.16 130.856 31.968C129.874 31.776 128.989 31.5093 128.2 31.168L129.128 27.136C129.618 27.392 130.29 27.616 131.144 27.808C131.997 27.9787 132.754 28.064 133.416 28.064C134.482 28.064 135.016 27.776 135.016 27.2C135.016 26.9227 134.845 26.72 134.504 26.592C134.184 26.464 133.757 26.3573 133.224 26.272C132.712 26.1653 132.157 26.0373 131.56 25.888C130.962 25.7173 130.397 25.472 129.864 25.152C129.352 24.8107 128.925 24.3307 128.584 23.712C128.264 23.0933 128.104 22.2827 128.104 21.28C128.104 19.5947 128.765 18.2507 130.088 17.248C131.432 16.2453 133.266 15.744 135.592 15.744C136.488 15.744 137.32 15.808 138.088 15.936C138.877 16.064 139.624 16.3307 140.328 16.736L139.656 20.64C138.525 20.1707 137.341 19.936 136.104 19.936C135.314 19.936 134.738 20 134.376 20.128C134.034 20.256 133.864 20.4693 133.864 20.768C133.864 21.0027 134.034 21.184 134.376 21.312C134.717 21.44 135.154 21.568 135.688 21.696C136.242 21.8027 136.818 21.9627 137.416 22.176C138.013 22.368 138.578 22.6453 139.112 23.008C139.666 23.3707 140.114 23.8613 140.456 24.48C140.797 25.0773 140.968 25.856 140.968 26.816C140.968 28.5227 140.338 29.856 139.08 30.816C137.821 31.776 136.05 32.256 133.768 32.256ZM153.161 27.776C153.78 27.776 154.431 27.712 155.113 27.584C155.817 27.456 156.532 27.2213 157.257 26.88L158.025 31.008C157.236 31.4133 156.372 31.7227 155.433 31.936C154.516 32.1493 153.46 32.256 152.265 32.256C150.111 32.256 148.297 31.904 146.825 31.2C145.375 30.496 144.276 29.5253 143.529 28.288C142.783 27.0507 142.409 25.6213 142.409 24C142.409 22.336 142.804 20.8853 143.593 19.648C144.404 18.4107 145.481 17.4507 146.825 16.768C148.169 16.0853 149.652 15.744 151.273 15.744C153.684 15.744 155.529 16.5013 156.809 18.016C158.089 19.5093 158.729 21.6427 158.729 24.416L149.193 25.632C149.897 27.0613 151.22 27.776 153.161 27.776ZM148.681 22.688L153.705 21.632C153.62 20.9493 153.385 20.448 153.001 20.128C152.617 19.7867 152.137 19.616 151.561 19.616C150.708 19.616 150.025 19.9147 149.513 20.512C149.023 21.088 148.745 21.8133 148.681 22.688ZM166.879 32.256C165.45 32.256 164.287 32 163.391 31.488C162.517 30.976 161.877 30.2827 161.471 29.408C161.066 28.5333 160.863 27.552 160.863 26.464V15.968H167.615V25.536C167.615 26.0267 167.754 26.4107 168.031 26.688C168.33 26.944 168.682 27.072 169.087 27.072C169.514 27.072 169.951 26.944 170.399 26.688L170.751 31.136C170.282 31.4987 169.674 31.776 168.927 31.968C168.181 32.16 167.498 32.256 166.879 32.256ZM164.255 14.208C163.274 14.208 162.431 13.8987 161.727 13.28C161.023 12.64 160.671 11.8613 160.671 10.944C160.671 10.304 160.842 9.74933 161.183 9.28C161.525 8.78933 161.973 8.40533 162.527 8.128C163.082 7.85066 163.658 7.712 164.255 7.712C164.917 7.712 165.514 7.86133 166.047 8.16C166.602 8.45867 167.039 8.85333 167.359 9.344C167.701 9.83467 167.871 10.368 167.871 10.944C167.871 11.584 167.69 12.1493 167.327 12.64C166.986 13.1307 166.538 13.5147 165.983 13.792C165.45 14.0693 164.874 14.208 164.255 14.208ZM178.901 32.256C177.386 32.256 176.149 32 175.189 31.488C174.25 30.976 173.568 30.2827 173.141 29.408C172.714 28.5333 172.501 27.552 172.501 26.464V19.936H170.453V15.968H172.981L175.957 10.912H179.253V15.968H182.965V19.936H179.253V25.536C179.253 26.0267 179.413 26.4107 179.733 26.688C180.053 26.944 180.469 27.072 180.981 27.072C181.493 27.072 182.005 26.944 182.517 26.688L182.997 31.136C182.485 31.4987 181.834 31.776 181.045 31.968C180.256 32.16 179.541 32.256 178.901 32.256ZM191.223 32.256C189.794 32.256 188.631 32 187.735 31.488C186.86 30.976 186.22 30.2827 185.815 29.408C185.41 28.5333 185.207 27.552 185.207 26.464V15.968H191.959V25.536C191.959 26.0267 192.098 26.4107 192.375 26.688C192.674 26.944 193.026 27.072 193.431 27.072C193.858 27.072 194.295 26.944 194.743 26.688L195.095 31.136C194.626 31.4987 194.018 31.776 193.271 31.968C192.524 32.16 191.842 32.256 191.223 32.256ZM188.599 14.208C187.618 14.208 186.775 13.8987 186.071 13.28C185.367 12.64 185.015 11.8613 185.015 10.944C185.015 10.304 185.186 9.74933 185.527 9.28C185.868 8.78933 186.316 8.40533 186.871 8.128C187.426 7.85066 188.002 7.712 188.599 7.712C189.26 7.712 189.858 7.86133 190.391 8.16C190.946 8.45867 191.383 8.85333 191.703 9.344C192.044 9.83467 192.215 10.368 192.215 10.944C192.215 11.584 192.034 12.1493 191.671 12.64C191.33 13.1307 190.882 13.5147 190.327 13.792C189.794 14.0693 189.218 14.208 188.599 14.208ZM206.12 38.24C205.31 38.24 204.552 38.1867 203.848 38.08C203.144 37.9733 202.59 37.8453 202.184 37.696L202.696 33.056C203.08 33.1413 203.496 33.2053 203.944 33.248C204.392 33.312 204.83 33.344 205.256 33.344C206.686 33.344 207.71 33.0453 208.328 32.448C208.968 31.8507 209.288 30.9333 209.288 29.696V28.192C208.691 29.3653 207.955 30.2293 207.08 30.784C206.206 31.3387 205.107 31.616 203.784 31.616C202.27 31.616 200.904 31.2747 199.688 30.592C198.472 29.888 197.512 28.9387 196.808 27.744C196.126 26.528 195.784 25.1413 195.784 23.584C195.784 22.0267 196.126 20.6613 196.808 19.488C197.512 18.3147 198.472 17.3973 199.688 16.736C200.904 16.0747 202.27 15.744 203.784 15.744C204.851 15.744 205.875 16.032 206.856 16.608C207.838 17.1627 208.584 18.0693 209.096 19.328V15.968H215.816V28.256C215.816 31.6693 214.974 34.1867 213.288 35.808C211.603 37.4293 209.214 38.24 206.12 38.24ZM205.864 26.56C206.782 26.56 207.55 26.272 208.168 25.696C208.787 25.12 209.096 24.4267 209.096 23.616C209.096 22.8053 208.787 22.1333 208.168 21.6C207.55 21.0667 206.782 20.8 205.864 20.8C204.883 20.8 204.072 21.0773 203.432 21.632C202.814 22.1867 202.504 22.8693 202.504 23.68C202.504 24.4693 202.814 25.152 203.432 25.728C204.072 26.2827 204.883 26.56 205.864 26.56Z" fill="#7E7E7E"/>
<path d="M122.467 32.192C121.293 32.192 120.397 31.8827 119.779 31.264C119.16 30.624 118.851 29.8453 118.851 28.928C118.851 27.9893 119.181 27.2213 119.843 26.624C120.504 26.0053 121.379 25.696 122.467 25.696C123.555 25.696 124.419 26.016 125.059 26.656C125.72 27.296 126.051 28.0533 126.051 28.928C126.051 29.9093 125.741 30.6987 125.123 31.296C124.525 31.8933 123.64 32.192 122.467 32.192Z" fill="#C8F135"/>
</svg>
