<svg width="20" height="20" viewBox="0 0 20 20" fill="none" xmlns="http://www.w3.org/2000/svg">
<mask id="mask0_410_464" style="mask-type:alpha" maskUnits="userSpaceOnUse" x="0" y="0" width="20" height="20">
<rect width="20" height="20" fill="#D9D9D9"/>
</mask>
<g mask="url(#mask0_410_464)">
<path d="M6.5478 17.311C5.6546 16.9072 5.20801 16.3854 5.20801 15.7454C5.20801 15.4494 5.3194 15.1711 5.54217 14.9104C5.76495 14.6497 6.07294 14.4259 6.46613 14.2389L7.45009 15.1316C7.27162 15.2032 7.08405 15.2923 6.88738 15.3991C6.69085 15.5061 6.55627 15.6188 6.48363 15.7372C6.62141 15.9863 7.03141 16.2034 7.71363 16.3887C8.39572 16.5741 9.15773 16.6668 9.99967 16.6668C10.8362 16.6668 11.599 16.5741 12.2882 16.3887C12.9772 16.2034 13.3907 15.9863 13.5286 15.7372C13.4581 15.6102 13.3157 15.4932 13.1016 15.3864C12.8872 15.2796 12.684 15.1904 12.4918 15.1187L13.4628 14.2133C13.889 14.4088 14.217 14.637 14.4468 14.8977C14.6765 15.1584 14.7913 15.4409 14.7913 15.7454C14.7913 16.3854 14.3447 16.9072 13.4515 17.311C12.5584 17.7149 11.4077 17.9168 9.99967 17.9168C8.59162 17.9168 7.44099 17.7149 6.5478 17.311ZM9.99967 15.4168C8.18023 14.0578 6.82259 12.7378 5.92676 11.4568C5.03092 10.1759 4.58301 8.92003 4.58301 7.68933C4.58301 6.76197 4.74676 5.94947 5.07426 5.25183C5.40176 4.55419 5.82454 3.97002 6.34259 3.49933C6.86079 3.02877 7.44176 2.67516 8.08551 2.4385C8.72912 2.20183 9.36717 2.0835 9.99967 2.0835C10.6322 2.0835 11.2702 2.20183 11.9138 2.4385C12.5576 2.67516 13.1386 3.02877 13.6568 3.49933C14.1748 3.97002 14.5976 4.55419 14.9251 5.25183C15.2526 5.94947 15.4163 6.76197 15.4163 7.68933C15.4163 8.92003 14.9684 10.1759 14.0726 11.4568C13.1768 12.7378 11.8191 14.0578 9.99967 15.4168ZM9.99967 9.07871C10.4152 9.07871 10.7702 8.93287 11.0645 8.64121C11.3589 8.34954 11.5061 7.99322 11.5061 7.57225C11.5061 7.15669 11.3589 6.80176 11.0645 6.50745C10.7702 6.21301 10.4152 6.06579 9.99967 6.06579C9.5894 6.06579 9.23579 6.21301 8.93884 6.50745C8.64176 6.80176 8.49322 7.15669 8.49322 7.57225C8.49322 7.99322 8.64176 8.34954 8.93884 8.64121C9.23579 8.93287 9.5894 9.07871 9.99967 9.07871Z" fill="#F5F4F0"/>
</g>
</svg>
