<svg width="219" height="45" viewBox="0 0 219 45" fill="none" xmlns="http://www.w3.org/2000/svg">
<rect x="0.791016" y="4.30664" width="36.3867" height="36.3867" rx="8.70117" stroke="#C8F135" stroke-width="1.58203"/>
<path d="M27.568 13.0379C29.3143 12.7979 30.9242 14.0194 31.1634 15.7657C31.4026 17.5121 30.1804 19.1214 28.434 19.3599C26.6887 19.5981 25.0805 18.3769 24.8414 16.6317C24.6024 14.8865 25.8229 13.2777 27.568 13.0379Z" fill="#C8F135"/>
<path d="M6.77637 16.6465L12.0871 28.6266C12.5752 29.7275 14.1799 29.589 14.472 28.4206L17.4151 16.6481C17.493 16.3367 17.9315 16.3258 18.0248 16.6329L21.5819 28.3369C21.9259 29.4688 23.4966 29.5519 23.9582 28.4626L26.5518 22.3418" stroke="#C8F135" stroke-width="3.16406" stroke-linecap="round"/>
<path d="M54.5448 36L50.3848 19.968H57.2328L59.3767 30.048L61.9048 19.968H67.4088L69.9688 30.304L72.1128 19.968H77.5848L73.7128 36H66.0648L63.9528 27.84L61.9368 36H54.5448ZM89.2083 31.776C89.8269 31.776 90.4776 31.712 91.1603 31.584C91.8643 31.456 92.5789 31.2213 93.3043 30.88L94.0723 35.008C93.2829 35.4133 92.4189 35.7227 91.4803 35.936C90.5629 36.1493 89.5069 36.256 88.3123 36.256C86.1576 36.256 84.3443 35.904 82.8723 35.2C81.4216 34.496 80.3229 33.5253 79.5763 32.288C78.8296 31.0507 78.4563 29.6213 78.4563 28C78.4563 26.336 78.8509 24.8853 79.6403 23.648C80.4509 22.4107 81.5283 21.4507 82.8723 20.768C84.2163 20.0853 85.6989 19.744 87.3203 19.744C89.7309 19.744 91.5763 20.5013 92.8563 22.016C94.1363 23.5093 94.7763 25.6427 94.7763 28.416L85.2403 29.632C85.9443 31.0613 87.2669 31.776 89.2083 31.776ZM84.7283 26.688L89.7523 25.632C89.6669 24.9493 89.4323 24.448 89.0483 24.128C88.6643 23.7867 88.1843 23.616 87.6083 23.616C86.7549 23.616 86.0723 23.9147 85.5603 24.512C85.0696 25.088 84.7923 25.8133 84.7283 26.688ZM108.974 36.256C107.694 36.256 106.628 35.9787 105.774 35.424C104.921 34.8693 104.238 34.0693 103.726 33.024V36H97.0063V14.912L103.79 13.92V23.264C104.302 22.048 105.028 21.1627 105.966 20.608C106.926 20.032 107.929 19.744 108.974 19.744C110.468 19.744 111.801 20.096 112.974 20.8C114.169 21.4827 115.108 22.432 115.79 23.648C116.494 24.864 116.846 26.2827 116.846 27.904C116.846 29.5253 116.494 30.9653 115.79 32.224C115.108 33.4827 114.169 34.4747 112.974 35.2C111.801 35.904 110.468 36.256 108.974 36.256ZM106.894 31.2C107.812 31.2 108.58 30.8907 109.198 30.272C109.817 29.6533 110.126 28.896 110.126 28C110.126 27.104 109.817 26.3467 109.198 25.728C108.58 25.1093 107.812 24.8 106.894 24.8C106.02 24.8 105.273 25.0987 104.654 25.696C104.036 26.272 103.726 27.0187 103.726 27.936C103.726 28.8533 104.036 29.632 104.654 30.272C105.273 30.8907 106.02 31.2 106.894 31.2ZM133.221 36.256C132.261 36.256 131.29 36.16 130.309 35.968C129.327 35.776 128.442 35.5093 127.653 35.168L128.581 31.136C129.071 31.392 129.743 31.616 130.597 31.808C131.45 31.9787 132.207 32.064 132.869 32.064C133.935 32.064 134.469 31.776 134.469 31.2C134.469 30.9227 134.298 30.72 133.957 30.592C133.637 30.464 133.21 30.3573 132.677 30.272C132.165 30.1653 131.61 30.0373 131.013 29.888C130.415 29.7173 129.85 29.472 129.317 29.152C128.805 28.8107 128.378 28.3307 128.037 27.712C127.717 27.0933 127.557 26.2827 127.557 25.28C127.557 23.5947 128.218 22.2507 129.541 21.248C130.885 20.2453 132.719 19.744 135.045 19.744C135.941 19.744 136.773 19.808 137.541 19.936C138.33 20.064 139.077 20.3307 139.781 20.736L139.109 24.64C137.978 24.1707 136.794 23.936 135.557 23.936C134.767 23.936 134.191 24 133.829 24.128C133.487 24.256 133.317 24.4693 133.317 24.768C133.317 25.0027 133.487 25.184 133.829 25.312C134.17 25.44 134.607 25.568 135.141 25.696C135.695 25.8027 136.271 25.9627 136.869 26.176C137.466 26.368 138.031 26.6453 138.565 27.008C139.119 27.3707 139.567 27.8613 139.909 28.48C140.25 29.0773 140.421 29.856 140.421 30.816C140.421 32.5227 139.791 33.856 138.533 34.816C137.274 35.776 135.503 36.256 133.221 36.256ZM152.615 31.776C153.233 31.776 153.884 31.712 154.567 31.584C155.271 31.456 155.985 31.2213 156.711 30.88L157.479 35.008C156.689 35.4133 155.825 35.7227 154.887 35.936C153.969 36.1493 152.913 36.256 151.719 36.256C149.564 36.256 147.751 35.904 146.279 35.2C144.828 34.496 143.729 33.5253 142.983 32.288C142.236 31.0507 141.863 29.6213 141.863 28C141.863 26.336 142.257 24.8853 143.047 23.648C143.857 22.4107 144.935 21.4507 146.279 20.768C147.623 20.0853 149.105 19.744 150.727 19.744C153.137 19.744 154.983 20.5013 156.263 22.016C157.543 23.5093 158.183 25.6427 158.183 28.416L148.647 29.632C149.351 31.0613 150.673 31.776 152.615 31.776ZM148.135 26.688L153.159 25.632C153.073 24.9493 152.839 24.448 152.455 24.128C152.071 23.7867 151.591 23.616 151.015 23.616C150.161 23.616 149.479 23.9147 148.967 24.512C148.476 25.088 148.199 25.8133 148.135 26.688ZM166.333 36.256C164.903 36.256 163.741 36 162.845 35.488C161.97 34.976 161.33 34.2827 160.924 33.408C160.519 32.5333 160.317 31.552 160.317 30.464V19.968H167.069V29.536C167.069 30.0267 167.207 30.4107 167.485 30.688C167.783 30.944 168.135 31.072 168.541 31.072C168.967 31.072 169.405 30.944 169.853 30.688L170.205 35.136C169.735 35.4987 169.127 35.776 168.381 35.968C167.634 36.16 166.951 36.256 166.333 36.256ZM163.709 18.208C162.727 18.208 161.885 17.8987 161.181 17.28C160.477 16.64 160.125 15.8613 160.125 14.944C160.125 14.304 160.295 13.7493 160.637 13.28C160.978 12.7893 161.426 12.4053 161.981 12.128C162.535 11.8507 163.111 11.712 163.709 11.712C164.37 11.712 164.967 11.8613 165.501 12.16C166.055 12.4587 166.493 12.8533 166.812 13.344C167.154 13.8347 167.325 14.368 167.325 14.944C167.325 15.584 167.143 16.1493 166.781 16.64C166.439 17.1307 165.991 17.5147 165.437 17.792C164.903 18.0693 164.327 18.208 163.709 18.208ZM178.354 36.256C176.84 36.256 175.602 36 174.642 35.488C173.704 34.976 173.021 34.2827 172.594 33.408C172.168 32.5333 171.954 31.552 171.954 30.464V23.936H169.906V19.968H172.434L175.41 14.912H178.706V19.968H182.418V23.936H178.706V29.536C178.706 30.0267 178.866 30.4107 179.186 30.688C179.506 30.944 179.922 31.072 180.434 31.072C180.946 31.072 181.458 30.944 181.97 30.688L182.45 35.136C181.938 35.4987 181.288 35.776 180.498 35.968C179.709 36.16 178.994 36.256 178.354 36.256ZM190.676 36.256C189.247 36.256 188.084 36 187.188 35.488C186.314 34.976 185.674 34.2827 185.268 33.408C184.863 32.5333 184.66 31.552 184.66 30.464V19.968H191.412V29.536C191.412 30.0267 191.551 30.4107 191.828 30.688C192.127 30.944 192.479 31.072 192.884 31.072C193.311 31.072 193.748 30.944 194.196 30.688L194.548 35.136C194.079 35.4987 193.471 35.776 192.724 35.968C191.978 36.16 191.295 36.256 190.676 36.256ZM188.052 18.208C187.071 18.208 186.228 17.8987 185.524 17.28C184.82 16.64 184.468 15.8613 184.468 14.944C184.468 14.304 184.639 13.7493 184.98 13.28C185.322 12.7893 185.77 12.4053 186.324 12.128C186.879 11.8507 187.455 11.712 188.052 11.712C188.714 11.712 189.311 11.8613 189.844 12.16C190.399 12.4587 190.836 12.8533 191.156 13.344C191.498 13.8347 191.668 14.368 191.668 14.944C191.668 15.584 191.487 16.1493 191.124 16.64C190.783 17.1307 190.335 17.5147 189.78 17.792C189.247 18.0693 188.671 18.208 188.052 18.208ZM205.574 42.24C204.763 42.24 204.006 42.1867 203.302 42.08C202.598 41.9733 202.043 41.8453 201.638 41.696L202.15 37.056C202.534 37.1413 202.95 37.2053 203.398 37.248C203.846 37.312 204.283 37.344 204.71 37.344C206.139 37.344 207.163 37.0453 207.782 36.448C208.422 35.8507 208.742 34.9333 208.742 33.696V32.192C208.144 33.3653 207.408 34.2293 206.534 34.784C205.659 35.3387 204.56 35.616 203.238 35.616C201.723 35.616 200.358 35.2747 199.141 34.592C197.926 33.888 196.966 32.9387 196.262 31.744C195.579 30.528 195.238 29.1413 195.238 27.584C195.238 26.0267 195.579 24.6613 196.262 23.488C196.966 22.3147 197.926 21.3973 199.141 20.736C200.358 20.0747 201.723 19.744 203.238 19.744C204.304 19.744 205.328 20.032 206.31 20.608C207.291 21.1627 208.038 22.0693 208.55 23.328V19.968H215.27V32.256C215.27 35.6693 214.427 38.1867 212.742 39.808C211.056 41.4293 208.667 42.24 205.574 42.24ZM205.318 30.56C206.235 30.56 207.003 30.272 207.622 29.696C208.24 29.12 208.55 28.4267 208.55 27.616C208.55 26.8053 208.24 26.1333 207.622 25.6C207.003 25.0667 206.235 24.8 205.318 24.8C204.336 24.8 203.525 25.0773 202.885 25.632C202.267 26.1867 201.958 26.8693 201.958 27.68C201.958 28.4693 202.267 29.152 202.885 29.728C203.525 30.2827 204.336 30.56 205.318 30.56Z" fill="#F5F4F0"/>
<path d="M121.92 36.192C120.746 36.192 119.85 35.8827 119.232 35.264C118.613 34.624 118.304 33.8453 118.304 32.928C118.304 31.9893 118.634 31.2213 119.296 30.624C119.957 30.0053 120.832 29.696 121.92 29.696C123.008 29.696 123.872 30.016 124.512 30.656C125.173 31.296 125.504 32.0533 125.504 32.928C125.504 33.9093 125.194 34.6987 124.576 35.296C123.978 35.8933 123.093 36.192 121.92 36.192Z" fill="#C8F135"/>
</svg>
