<svg width="80" height="82" viewBox="0 0 80 82" fill="none" xmlns="http://www.w3.org/2000/svg">
<path d="M79.793 0C79.646 0.874125 79.6965 3.85157 79.6945 4.907C79.6796 8.52355 79.6898 12.1401 79.725 15.7566L79.8191 57.8381L79.9048 67.8485C79.9346 69.61 80.0947 72.061 79.9181 73.7531C78.8039 70.9615 78.5197 66.7748 78.0396 63.7728C77.6882 61.5749 77.1557 59.4516 76.8142 57.291C76.281 53.9171 75.9681 50.6511 75.3548 47.2715C74.3213 41.5762 73.2423 35.8539 72.2826 30.148C71.83 27.4571 70.7089 23.3491 70.555 20.795C69.6015 21.1517 68.4748 21.8905 67.5712 22.4289C66.4797 23.0743 65.3803 23.7065 64.2735 24.3254C58.6468 27.4614 53.1358 30.8004 47.7511 34.3357C42.5288 37.7317 37.385 41.2595 32.0918 44.5732L31.6094 44.3191C39.0779 38.6493 46.37 32.7505 53.4751 26.6314C54.4234 25.8164 55.6565 24.9818 56.5248 24.1923C58.5923 22.3128 60.8473 20.3233 62.8389 18.3784C65.2911 15.9902 67.6847 13.5427 70.0177 11.038C71.3024 9.63131 72.4989 8.06128 73.7906 6.69596C75.858 4.51062 77.78 2.21127 79.793 0Z" fill="#F5F4F0"/>
<path d="M66.7005 31.4307C66.7558 31.4421 66.9414 31.5378 66.9455 31.5856C68.2488 46.5475 68.6743 61.6045 69.6089 76.5964C69.7077 78.1814 69.906 79.7324 70.1222 81.2972C66.9168 76.5013 63.808 71.6415 60.7979 66.7208C59.1699 64.1702 57.4133 61.5919 55.7669 59.0439C54.0003 59.9078 51.8746 60.2046 49.9855 60.7126C48.4531 61.1247 47.1892 61.7026 45.7769 62.3862C47.1449 60.4598 48.6226 58.4241 49.8843 56.4396C51.5904 53.7561 53.4244 51.2045 55.205 48.5729C56.1274 47.2097 56.9663 45.7862 57.8991 44.4298L63.4974 36.2572C64.161 35.2897 64.9973 34.472 65.6526 33.5101C66.0761 32.8885 66.3359 32.1141 66.7005 31.4307Z" fill="#F5F4F0"/>
<path d="M56.0109 37.2014C56.0477 37.2357 56.0832 37.3142 56.1105 37.3638C56.0391 37.6114 55.9026 37.8768 55.7351 38.0723C51.2855 43.294 47.6085 49.1591 43.6839 54.7811C40.8548 58.8338 38.2757 63.0533 35.2299 66.9623C34.5523 64.9 32.9488 63.2797 31.9313 61.2369C31.3258 61.7034 24.7707 64.068 23.6495 64.482C21.4727 65.3042 19.3012 66.14 17.135 66.9896C12.9274 68.6547 8.74471 70.3824 4.58859 72.1723C3.34887 72.6218 1.10638 73.6994 0 73.9791C0.81254 73.3144 2.18333 72.526 3.10661 71.9288L10.4033 67.3019L36.4665 50.5172C37.608 49.7906 38.8134 49.1355 39.9638 48.4075C43.7887 46.0041 47.5395 43.4845 51.2109 40.8525C52.8804 39.6536 54.5131 38.6176 56.0109 37.2014Z" fill="#F5F4F0"/>
<path d="M31.6096 44.3191L32.0921 44.5732C31.3554 45.1827 30.3666 45.675 29.457 45.9607C30.0999 45.385 30.9031 44.8166 31.6096 44.3191Z" fill="#F5F4F0"/>
</svg>
