<svg width="88" height="81" viewBox="0 0 88 81" fill="none" xmlns="http://www.w3.org/2000/svg">
<path d="M64.3005 0C64.7387 0.458656 64.7008 11.7877 64.7991 13.3246C64.9708 16.01 64.9871 19.3502 65.3141 22.0867C66.806 24.16 68.6899 25.5049 70.6047 27.1692C72.4543 28.7407 74.3088 31.6086 76.719 32.2783C80.46 33.3178 84.3307 33.998 88.0001 35.3612C86.3152 39.4941 84.1611 45.3103 81.2482 48.6729C76.8451 53.7559 67.7733 52.8974 61.6614 53.0706C56.0187 53.2305 52.061 53.0121 46.9882 55.8365C47.1003 58.755 47.5783 61.5356 47.7978 64.4198C48.2125 69.8702 48.8895 75.5161 49.0967 80.9666C46.2279 79.6844 42.6351 78.8609 39.6132 77.9013C38.2256 77.4606 36.5726 77.2394 35.1367 76.8133L4.01684 67.4867C4.24064 67.2278 4.51992 66.8501 4.70172 66.5583C7.22754 62.5043 9.3886 58.2959 11.8477 54.1961C9.94 54.6384 8.00611 55.2568 6.10401 55.7828C4.37423 56.2612 1.57808 56.6922 0 57.2915C0.802042 56.1637 2.79667 52.1248 3.54345 50.7089C4.74899 48.2268 6.26138 45.9592 7.67493 43.6012C8.57319 42.1029 9.27059 40.5764 10.2611 39.1058C12.0899 36.3432 14.2853 33.8337 16.3093 31.2224C17.2155 30.0531 19.4772 27.6151 19.6666 26.2374C20.4201 20.755 20.512 15.171 20.9056 9.65546C21.0344 7.85157 21.0142 4.971 21.5812 3.33649C22.2209 4.0999 23.1095 4.9351 23.7927 5.70177C26.5315 8.77562 29.4774 11.6434 32.3693 14.5726C33.8437 16.0658 35.1142 17.6646 36.5711 19.1416C35.1023 19.9501 34.2757 20.4719 33.3399 21.8776C32.6358 20.7389 30.838 18.8359 29.867 17.7371C28.319 16.1332 26.0506 13.4848 24.7561 11.7363C24.7237 15.783 23.8979 23.0088 23.644 27.2486C23.5912 28.129 19.7448 32.5039 18.9195 33.8798C15.7364 39.1866 14.6298 45.6078 13.5691 51.6311C15.4662 51.1255 18.5568 49.8447 20.7375 49.1673C19.7176 52.5126 18.6437 58.9387 18.6056 62.4118C21.8665 64.5566 25.3611 66.5695 28.7551 68.5026C30.3429 69.4069 32.122 70.1701 33.7584 71.0169C35.9973 72.2 38.2137 73.4251 40.4066 74.6916C42.0304 75.6171 44.876 76.9274 46.1502 77.9995C44.8295 76.094 43.4178 74.3736 42.3358 72.2912C40.7321 69.2048 38.8396 66.0584 37.6912 62.7738C37.031 60.8853 36.7873 58.6521 36.2873 56.6899C37.3668 56.1191 38.6156 55.1599 39.7755 54.5282C42.8464 52.8559 45.9958 51.2933 49.1804 49.8442C51.5807 48.752 54.7839 47.1443 57.3288 46.575C59.5392 46.1657 61.8025 46.1312 64.0415 46.0523C68.1642 45.9071 72.6557 46.3204 76.7419 46.0433C78.5325 45.9218 80.563 41.2893 81.4909 39.831C82.0519 38.9494 82.7228 37.9671 83.3912 37.0585C81.4137 36.7018 79.4111 36.0788 77.4339 35.7994C74.711 35.4146 71.8528 34.8695 69.1146 34.6892C68.317 30.7235 63.9757 26.2359 61.6116 22.872C61.2891 18.0827 60.9756 11.4142 61.2831 6.74699C57.9684 8.69056 52.8406 14.2401 48.8424 15.5235C48.3441 15.6834 44.7925 15.7092 44.0219 15.731C41.889 15.7894 39.759 15.9262 37.6363 16.1415C36.6318 15.6861 35.3644 14.5519 34.5679 13.8144C38.4018 12.6736 43.1836 12.6957 47.1525 12.6509C48.7978 12.6322 51.5379 10.111 52.8962 9.09585C55.4967 7.15238 58.0371 5.10153 60.505 2.99721C61.644 2.026 63.326 1.05142 64.3005 0Z" fill="#F5F4F0"/>
<path d="M53.196 26.5691C53.6013 26.5943 57.4919 30.1361 58.2646 30.5733C58.5786 30.751 59.8613 31.8299 60.2081 32.1389C58.5368 32.1093 56.9759 32.1329 55.3055 32.3169C53.8294 32.4794 52.5672 33.0335 51.1388 32.5853C49.7722 32.0283 48.4745 31.1603 47.1685 30.4602C45.9574 29.8112 44.7273 29.2514 43.4736 28.692C46.3443 27.818 50.2229 27.1273 53.196 26.5691Z" fill="#F5F4F0"/>
</svg>
