<svg width="152" height="81" viewBox="0 0 152 81" fill="none" xmlns="http://www.w3.org/2000/svg">
<path d="M0 0.144539C2.41027 0.502183 6.26036 0.255005 8.73842 0.228643C11.7798 0.196234 14.8065 0.193154 17.8484 0.191899L42.7789 0.12046C47.242 0.106424 51.9589 0.207761 56.3996 0.0588379C58.5641 1.98274 59.8369 3.18599 61.7554 5.37522C64.087 8.03632 65.5927 10.3842 68.5028 12.4457C63.0776 12.0333 59.3087 12.2216 53.8886 12.2119C46.0615 12.2757 38.234 12.1824 30.4107 11.9319C31.6701 13.8917 33.8311 16.0389 35.4084 17.8412C36.4849 19.0711 37.7207 20.5864 38.8254 21.7256C40.1746 23.1168 41.5881 24.2488 42.8962 25.7596C46.1486 25.4344 50.2999 25.5216 53.629 25.5243L70.2112 25.5513C72.8988 25.5572 76.1538 25.664 78.796 25.5525L78.9638 62.1461C77.3915 62.7602 75.8136 63.676 74.2748 64.396C70.8938 65.9777 67.545 67.6875 64.166 69.2673C56.2979 72.9461 47.7516 75.9752 40.1459 80.1227C40.9113 78.5308 41.2424 76.5674 41.6521 74.855C42.3656 71.8732 42.944 67.9959 43.9689 65.1267C44.9962 64.4581 47.6683 63.5248 48.9701 62.9496C51.302 61.925 53.604 60.7828 55.8684 59.6144C56.9793 59.0412 58.7793 58.4962 59.7559 57.9182C61.0224 57.1686 64.9075 55.5918 65.7729 54.7947C65.8339 54.4753 65.8288 54.4186 65.7933 54.0943C64.7852 52.4954 65.9278 43.0653 65.6387 40.6718C65.5853 40.2294 65.6487 38.0926 65.7286 37.6811L65.6985 37.4844C65.058 37.4229 63.3337 37.5336 62.5561 37.537L54.7852 37.5435L42.6238 37.5436C40.9209 37.5534 38.2864 37.4981 36.6625 37.6296C35.3912 36.3 33.7276 35.2911 32.49 34.0108C29.4369 30.8528 26.428 27.7866 23.4565 24.5478C20.9923 21.862 18.0562 19.2572 15.5096 16.6066L4.7547 5.21956C2.80512 3.13863 2.3499 2.17948 0 0.144539Z" fill="#F5F4F0"/>
<path d="M89.3808 25.6519L137.708 25.7805C134.889 29.8697 133.958 33.2694 130.296 37.5061C128.418 37.6716 126.159 37.6525 124.252 37.6797C120.437 37.7419 116.622 37.7531 112.806 37.7133C112.045 38.2491 109.839 37.9689 108.81 38.0158C106.867 38.1042 104.854 38.3797 102.926 38.3839C102.733 39.8264 102.707 54.3368 102.986 54.7806C103.604 55.2539 103.948 55.0743 104.265 55.6227C105.197 56.5079 120.038 62.8642 122.488 63.9803C123.22 64.3143 124.443 64.6098 125.271 64.7489C125.48 67.0962 125.96 69.016 126.381 71.2999C126.868 73.9316 127.3 76.5706 127.896 79.1855C125.456 78.2672 123.065 77.0891 120.605 76.147C117.58 74.9891 114.523 73.4838 111.556 72.158L89.4322 62.3056C89.6094 59.186 89.4387 54.778 89.4177 51.5678C89.3605 42.8662 89.0804 34.3608 89.3808 25.6519Z" fill="#F5F4F0"/>
<path d="M67.8867 0C73.1861 0.101564 78.4867 0.133745 83.787 0.0965424L108.158 0.115373L152 0.422349C150.935 1.57288 148.379 5.9616 147.45 7.50812C146.557 8.90936 145.716 10.5327 144.92 12.0061L122.159 12.0818C119.655 12.0713 117.154 11.9581 114.651 11.9655L89.9634 11.9726C86.477 11.957 83.0003 12.0112 79.5133 11.9251C76.7353 9.28664 74.0358 6.56642 71.4185 3.76838C70.3863 2.68176 68.7913 1.12736 67.8867 0Z" fill="#F5F4F0"/>
</svg>
