<svg width="85" height="80" viewBox="0 0 85 80" fill="none" xmlns="http://www.w3.org/2000/svg">
<path d="M0 0.183976C4.06697 0.212514 8.33485 0.0103689 12.4442 0L56.3385 0.068967C65.5625 0.0838069 75.117 -0.0631645 84.3149 0.170658C84.0125 3.28369 84.1969 6.61505 84.1598 9.73655C84.1151 13.5419 84.0761 17.294 84.1047 21.1021L84.0352 58.3313C84.0071 62.4859 84.3938 67.3729 84.1988 71.3056C81.4847 69.4332 78.6513 66.2845 76.2193 64.0302C76.6594 62.4233 76.6105 58.8116 76.6155 57.0172L76.6061 48.3429L76.7074 21.5043C76.7142 16.8405 76.5958 11.9963 76.6952 7.36826C73.0728 7.54986 68.4973 7.41754 64.7918 7.41478L42.5932 7.4398L17.9626 7.4554C14.6139 7.43257 10.8717 7.63224 7.59524 7.39319C7.66553 10.1143 7.38339 13.1186 7.35761 15.8621C7.32317 19.5221 7.41906 23.2642 7.26334 26.9175C7.39157 30.8091 7.29654 34.7479 7.28465 38.6419C7.27428 42.0378 7.36702 45.4197 7.31328 48.8183L7.34248 61.0242C7.38025 64.9193 7.4945 68.7711 7.38405 72.6762C10.0226 72.4711 13.4765 72.5672 16.1917 72.5705C20.7737 72.5505 25.3559 72.5593 29.9377 72.5967C32.0274 72.6132 34.1172 72.6072 36.2067 72.5788C37.3392 72.5683 39.2797 72.5136 40.3726 72.6471C40.4385 73.9243 40.7576 75.5354 40.8933 76.8483C40.9948 77.8289 41.0109 78.9044 41.1203 79.828C40.5299 79.9429 37.8498 79.972 37.1869 79.9707L30.6847 79.9428C20.4651 79.9715 10.4508 79.7079 0.228876 80.0003C0.10892 60.9012 0.0948416 41.8018 0.186639 22.7027L0.203286 9.52698C0.224309 6.65624 0.402673 2.91783 0 0.183976Z" fill="#F5F4F0"/>
<path d="M22.8669 23.3787C24.2359 23.1876 26.9524 23.2129 28.3913 23.1898L40.083 23.0935C41.0222 23.217 41.7854 23.4071 42.6634 23.5396C42.949 23.4341 43.7063 23.1219 43.9642 23.1215C44.0806 23.779 44.0907 24.8106 44.0863 25.5012L43.7933 40.2724L43.711 40.3254C43.2503 40.0786 41.6718 40.3062 41.0984 39.8728C40.4331 39.3699 40.7623 38.1891 40.5942 37.2293L40.5771 37.1357L40.4621 25.0665C37.1042 25.4511 34.0589 25.298 30.6952 25.2541C29.3422 25.2364 27.726 25.1706 26.3949 25.2817C26.309 27.3464 26.4618 28.394 26.9806 30.3934C27.9665 34.1924 28.7034 38.0695 29.9328 41.8046C30.575 43.7876 31.0169 45.8507 31.697 47.8259C31.9119 48.5859 32.092 49.0197 32.4317 49.7392C32.2172 50.0726 32.3347 49.9683 31.993 50.146C31.6121 50.1505 31.5624 50.1167 31.2308 49.929C31.0266 49.6287 30.7894 49.1332 30.6166 48.7988C29.3922 46.4239 29.4038 45.0516 28.6823 42.6175C27.8427 39.7851 26.8144 37.046 26.2056 34.1127C25.9717 32.9858 25.0586 31.7319 24.8269 30.4427C24.3251 32.4372 24.0653 34.7292 23.4946 36.6381C22.437 40.1764 21.3186 44.2133 20.0461 47.6552C19.8087 47.6423 19.5888 47.3236 19.3255 47.1325C18.9678 46.8729 19.0086 46.6647 18.9756 46.2935C19.152 45.2184 20.0351 42.8085 20.3475 41.57C21.1852 38.2493 22.1775 34.974 23.0795 31.6642C23.4936 30.1447 24.2375 28.2869 24.3197 26.7283C24.3539 26.0816 23.2351 25.3324 23.032 24.6648C22.914 24.2769 22.8964 23.7874 22.8669 23.3787Z" fill="#F5F4F0"/>
<path d="M16.7373 51.513C17.9979 49.4777 18.2676 48.5718 18.9757 46.2937C19.0087 46.6649 18.9679 46.8731 19.3256 47.1327C19.5889 47.3238 19.8089 47.6425 20.0463 47.6554C19.7542 48.4559 19.426 49.3072 19.1712 50.1153C20.4204 50.1267 30.8818 50.12 31.231 49.9292C31.5626 50.1169 31.6122 50.1507 31.9931 50.1463C32.3348 49.9685 32.2173 50.0728 32.4319 49.7394C33.0683 50.2696 34.489 50.9759 33.8602 52.1059C33.0781 53.4684 31.2316 54.5394 29.6863 54.6698C25.9163 54.988 18.2895 55.9516 16.7373 51.513Z" fill="#F5F4F0"/>
<path d="M43.9966 22.8132L44.1773 22.9724C45.4771 23.1517 46.7863 23.2536 48.0981 23.2773C49.9555 23.3184 60.8924 22.9827 61.3886 23.6913C61.5523 23.9251 61.5025 24.4697 61.4374 24.7349C61.3732 24.9964 61.1851 25.1928 60.9527 25.318C60.7161 25.4455 60.395 25.5026 60.1327 25.5586C59.7254 28.0613 60.5765 29.0735 61.1457 31.3732C62.4581 36.6752 64.0995 41.8856 65.7467 47.0907C65.845 47.4017 65.9517 47.6722 66.024 47.9917C66.039 48.8146 66.4864 49.3443 66.4273 49.573C66.263 49.5711 66.1927 49.5609 66.0319 49.6098L66.0346 49.8909L65.7926 49.94C64.4559 48.4216 63.504 44.4515 62.87 42.453C62.5867 41.3311 61.8423 39.9451 61.6359 38.8299C61.0675 35.7567 59.8638 32.9999 58.9761 30.0518C58.4527 32.1269 58.1137 34.1226 57.6219 36.1776C57.1788 38.0288 56.4621 39.9632 55.9615 41.8356C55.5429 43.4014 55.0476 45.3691 54.4645 46.8578C53.9796 47.2527 54.1256 47.4618 53.8242 47.9676C53.5697 47.9681 53.5898 47.9057 53.3585 47.6858C53.2246 46.9721 53.2338 46.4366 53.2311 45.7259C53.3293 44.9829 54.2765 42.282 54.5278 41.302C55.2148 38.6237 55.7782 35.955 56.4355 33.2741C57.0645 30.7091 58.0633 28.2577 58.351 25.6152C56.4403 25.3686 53.5262 25.4206 51.5605 25.4362C49.1237 25.4646 46.6865 25.4555 44.2499 25.4089L44.0865 25.5013C44.0909 24.8107 44.0808 23.7792 43.9644 23.1216L43.9966 22.8132Z" fill="#F5F4F0"/>
<path d="M53.2308 45.7258C53.2336 46.4365 53.2244 46.972 53.3583 47.6857C53.5896 47.9056 53.5695 47.968 53.824 47.9675C54.1254 47.4617 53.9794 47.2526 54.4643 46.8576C54.1309 47.9165 53.7437 48.9747 53.4237 50.0274C56.0969 50.027 58.7757 49.9701 61.4491 49.9309C62.2065 49.9198 65.3095 50.0471 65.7924 49.9399L66.0344 49.8908L66.0316 49.6097C66.1925 49.5608 66.2628 49.571 66.4271 49.5729C66.4861 49.3442 66.0388 48.8145 66.0237 47.9916C66.8033 49.9244 67.6658 50.4212 67.5552 52.3866C65.711 55.552 58.4641 55.0454 55.2254 54.7476C52.8675 54.5307 51.2758 52.8671 49.9502 51.0453C52.656 49.5589 52.3113 48.4363 53.2308 45.7258Z" fill="#F5F4F0"/>
<path d="M40.3726 72.6469C43.4944 72.7905 46.0806 72.7071 49.1804 72.6867L59.2961 72.6805L68.9368 72.6761C70.1542 72.6735 74.9153 72.838 75.6558 72.2297C76.9019 72.5871 79.3226 75.207 80.3865 76.1525C81.6189 77.2478 83.1546 78.4073 84.253 79.6043C79.5713 79.1958 74.0209 79.5698 69.2069 79.5422C63.6253 79.5062 58.0435 79.5156 52.462 79.5703C48.7201 79.5914 44.8341 79.5128 41.1203 79.8278C41.0109 78.9042 40.9948 77.8287 40.8933 76.8481C40.7575 75.5352 40.4385 73.9241 40.3726 72.6469Z" fill="#F5F4F0"/>
<path d="M40.5768 37.1357L40.5939 37.2293C40.762 38.1892 40.4328 39.37 41.0981 39.8728C41.6715 40.3062 43.25 40.0787 43.7107 40.3255L43.793 40.2725C43.8481 41.7062 43.7708 43.6377 43.7734 45.1231C43.7598 49.243 43.8007 53.3628 43.8959 57.4816C43.9525 59.4739 44.0024 61.7591 44.2591 63.7213C47.7438 63.893 52.0243 63.7925 55.3494 64.5595C55.4839 65.2105 55.4844 65.4074 55.475 66.0677C51.3825 66.8233 46.4198 66.252 42.2699 66.2651C38.9842 66.2756 35.6964 66.3362 32.4157 66.1423C31.7272 66.1016 30.2283 66.2969 29.7367 65.8769C29.5132 65.2264 30.1516 64.7527 30.7169 64.6099C33.8631 63.8154 37.222 63.8907 40.3371 62.9763C40.7999 59.5829 40.6211 55.383 40.5869 51.9324C40.5683 48.9094 40.5756 45.8864 40.6089 42.8635C40.6109 40.9513 40.5495 39.0488 40.5768 37.1357Z" fill="#F5F4F0"/>
<path d="M38.6079 17.2458C40.4139 13.0488 43.8678 11.9185 45.1541 17.2516C44.7925 18.62 43.9764 19.8745 43.6181 21.2915C43.8068 21.8394 43.9528 22.2313 43.9964 22.8131L43.9641 23.1215C43.7063 23.1219 42.9489 23.4341 42.6634 23.5396C41.7853 23.4071 41.0221 23.217 40.0829 23.0935C40.1835 23.0628 40.323 23.0019 40.4246 22.9616C41.4387 21.2387 39.6242 18.5657 38.6079 17.2458Z" fill="#F5F4F0"/>
</svg>
