<svg width="84" height="81" viewBox="0 0 84 81" fill="none" xmlns="http://www.w3.org/2000/svg">
<path d="M57.7421 77.9837C57.2927 78.189 56.6242 78.4297 56.1581 78.5873C44.8583 82.3158 32.55 81.49 21.8495 76.2855C12.7392 71.7538 4.99609 62.7524 1.93572 53.0653C-2.29755 39.6657 0.445687 25.0982 9.83967 14.543C15.4631 8.22441 21.0252 4.623 29.053 1.98511C38.2706 -0.943445 48.2135 -0.623708 57.2239 2.8912C58.3148 3.31177 59.5815 3.79449 60.6195 4.3173C60.2434 7.47348 62.5995 8.06525 62.6966 9.518C60.859 8.64128 59.085 7.93645 57.2417 7.1366C36.6656 -1.7913 10.8849 9.6027 5.29909 31.7564C3.7012 38.0943 4.00921 46.0453 6.20207 52.2137C9.42311 61.4653 16.1928 69.0549 25.0174 73.3082C31.055 76.1614 39.0675 77.7488 45.7401 77.0811C45.8792 77.0228 45.8935 76.9725 45.9818 76.8477L45.8976 76.5422C44.5732 76.3483 43.0818 76.1731 41.7524 75.8951C34.3939 74.3561 27.6855 67.7818 23.5996 61.7682C20.0696 56.5726 19.2271 48.1111 20.5032 42.112C21.5975 36.9671 25.7975 30.5685 30.3237 27.6273C30.9071 29.6439 31.3314 31.9675 31.7653 34.0321L33.7243 43.1955C33.3373 44.5682 31.0643 48.7378 30.2816 50.1834C29.7988 49.3808 29.4622 48.5165 29.0106 47.7251C27.5042 45.085 26.8798 42.4762 26.0044 39.593C24.6843 43.7755 24.5278 48.2385 25.5517 52.5031C25.9459 54.109 26.5379 55.5383 27.1059 57.0622C29.2407 62.7896 32.4058 68.1862 37.8365 71.3816C43.2878 74.5892 50.2816 75.5412 56.4173 74.0197C56.7706 74.9578 57.4005 76.1552 58.1287 76.8542L57.7421 77.9837Z" fill="#F5F4F0"/>
<path d="M64.9884 16.1321C65.1602 16.4846 64.701 25.6694 64.6203 26.8544C64.0423 35.353 58.2144 47.1705 51.7579 52.7756C45.1264 58.5326 40.4016 60.0879 31.6217 59.4923C31.6133 58.5901 31.6509 57.7712 31.8577 56.8919C33.2618 56.352 35.8821 56.3406 37.6462 55.9159C39.5337 55.4616 40.7402 54.927 42.442 54.3854C46.5638 53.0732 49.1954 51.5547 52.3323 48.5536C53.5457 47.3927 54.81 45.8291 56.0296 44.5448C54.0354 45.7872 52.1666 47.5488 49.9907 48.7921C45.9047 51.1268 42.082 51.9888 37.3876 51.7957C36.1648 51.7454 34.9807 51.6955 33.7948 51.3863C33.9522 50.3854 34.977 49.074 35.476 48.2693C38.1216 44.0031 40.7493 42.8081 45.4312 41.6637C47.945 41.0493 52.3542 38.6504 54.4084 36.8512C51.8012 37.57 47.5301 37.9519 44.7901 37.8141C46.9165 34.1364 52.1802 31.3532 54.8166 28.0059C51.8008 29.5457 48.7044 31.0616 45.6062 32.4455C43.3161 33.4685 41.7845 34.6516 39.9515 36.3456C38.9476 37.2735 38.0657 38.3622 37.0436 39.2271C35.9702 35.6925 34.8228 28.5063 36.4795 25.0291C38.5035 20.7811 48.7547 18.8214 53.1973 18.0189C57.0103 17.3302 61.2527 17.4561 64.9884 16.1321Z" fill="#F5F4F0"/>
<path d="M70.2852 16.1378C70.7485 14.994 71.3301 13.4893 71.9808 12.4768C75.9992 16.6995 78.434 19.3522 80.7784 24.7879C83.3154 30.6703 84.2308 36.1267 83.9521 42.5498C83.7962 48.1703 82.1337 54.7229 79.4445 59.6706C78.0252 62.2822 73.9718 67.4687 71.7619 69.5149C68.5179 72.5183 63.3701 76.1744 59.1738 77.6723C58.8411 77.3622 58.542 77.0461 58.1289 76.8542C57.4008 76.1552 56.7708 74.9578 56.4175 74.0196C59.9768 73.0635 64.4387 70.6475 67.22 68.2556C78.1243 58.8781 82.7839 44.688 78.8963 30.7708C77.6197 26.2011 73.6665 19.2901 70.2852 16.1378Z" fill="#F5F4F0"/>
<path d="M60.6192 4.31738C64.1883 6.10751 67.2087 8.15314 70.2953 10.6819C68.4855 10.7095 65.9199 10.919 64.2679 10.3145C63.71 10.1105 63.1949 9.73679 62.6963 9.51809C62.5993 8.06533 60.2432 7.47357 60.6192 4.31738Z" fill="#F5F4F0"/>
</svg>
