<svg width="79" height="80" viewBox="0 0 79 80" fill="none" xmlns="http://www.w3.org/2000/svg">
<path d="M69.5004 0C71.2033 1.03668 76.3098 0.74129 78.4348 0.598974C78.6704 7.0169 78.4661 13.6283 78.5307 20.0575C78.5641 23.383 78.425 27.8249 78.7995 31.1055C77.3109 29.876 73.5142 27.421 71.6889 26.9198C71.7046 21.6342 71.8507 16.3466 71.742 11.0609C71.7148 9.73974 71.6892 8.41696 71.5242 7.10432C69.41 7.7077 67.7963 8.9202 65.839 9.83144C62.5368 11.3498 59.4073 12.9862 56.2266 14.7385C50.6929 17.7868 45.0341 20.5997 39.4834 23.6113C37.5727 24.648 35.9686 25.423 34.2173 26.7701C41.377 30.3453 48.5232 33.3898 55.7766 36.7072C58.3786 37.9426 61.3156 39.2935 63.9755 40.4027C63.9042 42.8733 63.9332 45.059 63.9859 47.5247C62.0323 46.2695 59.5931 45.7465 57.6486 44.6061C54.5495 42.7885 51.3456 41.5989 48.1427 40.065L27.8012 30.3007C25.1041 28.9996 22.6204 28.0758 19.9355 26.6233C23.8137 25.2827 27.4228 22.871 31.0462 20.9368L54.4048 8.27978C57.659 6.49055 61.0611 5.11042 64.2663 3.10687C66.0671 1.9813 67.696 1.33684 69.5004 0Z" fill="#F5F4F0"/>
<path d="M0.161191 0.260986C1.226 0.442183 3.78965 0.419565 4.91681 0.426168L12.2857 0.486444L38.0469 0.504906C41.9353 0.50405 47.0366 0.359044 50.8426 0.57423C49.3702 1.50699 47.5282 2.45112 45.9944 3.29853C44.2883 4.24107 41.1203 6.25674 39.3909 6.81989C38.0823 7.24598 33.6399 7.09278 32.0209 7.09327L13.9157 7.08899C12.2992 7.09156 7.892 6.91721 6.53804 7.05745L6.39193 7.23852C6.19044 16.0761 6.49011 25.7369 6.50613 34.6697L6.51725 44.3784C6.51872 46.0884 6.4538 49.1701 6.73598 50.7516C4.94847 50.788 1.84735 50.7912 0.136006 51.0806C-0.0299078 34.1411 -0.0214722 17.2003 0.161191 0.260986Z" fill="#F5F4F0"/>
<path d="M0 59.8053C2.22106 59.8382 4.44237 59.8378 6.66344 59.8044C6.51073 64.4137 6.73582 69.2265 6.7511 73.8836L39.1537 74.0037C44.4545 74.0278 51.004 74.286 56.1545 74.0787L56.1107 79.99C43.2021 79.8657 30.2927 79.8257 17.3835 79.8703L6.43847 79.8622C4.83289 79.8603 1.65461 79.7785 0.155275 79.9873L0 59.8053Z" fill="#F5F4F0"/>
<path d="M14.4844 33.447C19.7013 35.5019 24.9325 38.0381 30.0159 40.4204L47.8381 48.77C49.5675 49.5926 51.6575 50.1936 53.3016 51.0543C56.7836 52.8769 60.4535 54.357 63.9629 56.0639C63.6862 58.3705 63.7278 60.2148 63.7418 62.5386C60.47 60.8158 55.7242 58.9487 52.2911 57.4029L34.592 49.2473C31.5156 47.8547 28.5226 46.3008 25.3791 44.9915C23.3303 44.1382 21.3198 42.7209 19.2076 41.907C17.5477 41.2675 15.9429 40.5438 14.2622 39.9393C14.8383 37.9215 14.7522 35.51 14.4844 33.447Z" fill="#F5F4F0"/>
<path d="M71.7973 39.6726C73.3083 40.2306 77.5673 42.5074 78.872 43.3187C78.7259 44.5136 78.7649 46.333 78.7471 47.5764C78.7038 50.1569 78.6787 52.7377 78.6714 55.3186C78.7218 63.5328 78.6675 71.7475 78.5086 79.9604L71.8351 79.9095C69.5295 79.8773 67.2233 79.9075 64.9192 79.9998C65.0286 77.9572 64.9198 75.9024 64.8242 73.8615C67.201 73.8503 69.5779 73.886 71.9534 73.9684C72.0728 67.2124 71.926 60.6354 71.9597 53.908C71.9915 50.8223 71.9889 47.7365 71.9521 44.6509C71.9372 43.151 71.985 41.1137 71.7973 39.6726Z" fill="#F5F4F0"/>
</svg>
