<svg width="112" height="80" viewBox="0 0 112 80" fill="none" xmlns="http://www.w3.org/2000/svg">
<path d="M50.7636 0.520068C54.2007 0.627284 56.7855 0.509946 60.1837 0.455213L80.1299 0.0527125C85.5129 -0.00851843 91.2579 -0.195086 96.5747 0.853588C99.7624 1.48227 103.435 3.63872 105.691 5.98287C108.369 8.76637 109.602 13.3372 109.52 17.1245C108.413 32.2812 89.0617 35.4353 77.3206 38.2673C71.3991 39.6956 65.4719 41.3296 59.6506 42.3418C58.7038 43.7888 57.8862 45.8499 57.2676 47.4887C55.8257 51.3092 54.4816 55.1182 52.902 58.8906C51.9904 61.0675 51.327 63.3405 50.3347 65.5085C53.6555 64.8595 57.5522 64.4143 60.9365 63.9199C65.8457 63.1661 70.7499 62.3804 75.6489 61.5631C81.5518 60.5701 94.2438 59.4665 93.5927 50.2245C93.4813 48.6442 91.8848 46.574 90.5979 45.8687C86.5091 43.176 83.6258 43.0574 78.9507 42.8359C80.7084 41.8657 82.9456 41.2594 84.8838 40.5942C89.0125 39.2113 94.6502 35.8038 99.0557 37.1743C103.71 38.6219 107.776 40.9887 110.216 45.3721C114.98 53.9288 109.362 63.6749 101.57 68.023C94.1076 72.1877 84.6881 72.3318 76.413 73.6752C67.743 75.0019 58.9732 76.5511 50.2955 77.6938C46.7694 78.1488 43.2397 78.5765 39.7068 78.977C37.224 79.25 34.0805 79.5186 31.647 79.9998C32.1858 79.2006 33.7754 75.0452 34.1973 73.9172C36.4611 67.8625 38.7129 61.77 41.3628 55.867C42.2463 53.8989 43.4505 51.8784 44.3038 49.8802C44.9 48.4843 45.3166 46.8811 45.9473 45.5119C46.4406 44.4405 47.76 43.4018 47.8822 42.1406C47.766 41.781 47.7368 41.6929 47.5393 41.3726L46.4601 40.6078C46.5543 38.8379 46.7624 38.1762 47.2955 36.4509C47.569 34.0265 48.7578 30.8542 48.9881 28.1112C53.2271 28.3108 57.3816 28.3723 61.6575 28.3448C71.2391 28.2833 82.6337 28.4395 90.4541 22.046C92.4003 20.455 94.9288 15.7312 92.8162 13.5429C91.856 12.5482 90.665 12.328 89.3353 12.3296C82.5365 12.2855 75.6815 12.817 68.9021 13.3364C66.5655 13.5154 64.0966 13.7101 61.7617 13.9468C61.4659 13.9766 61.0913 14.217 60.8458 14.3861C59.1228 12.2314 57.173 9.07478 55.5027 6.83972C54.0307 4.87046 51.9339 2.62254 50.7636 0.520068Z" fill="#F5F4F0"/>
<path d="M46.4604 40.6079C46.5547 38.8379 46.7627 38.1763 47.2958 36.4509C47.4154 37.3135 47.8118 40.635 47.5396 41.3727L46.4604 40.6079Z" fill="#F5F4F0"/>
<path d="M0 9.2254C1.89279 8.96285 4.82787 9.14305 6.7554 9.4672C9.19251 9.57329 11.5819 9.81883 14.0346 9.90106C24.8161 10.159 35.6008 10.2623 46.3853 10.2111C44.9416 13.6604 43.7043 17.1923 42.6795 20.7883C41.3762 20.1411 39.3834 19.6825 37.9604 19.2268C34.4669 18.1079 30.8803 17.2855 27.365 16.3139L13.5652 12.5195C11.0788 11.844 8.00151 10.9085 5.52178 10.4723C4.55296 10.4144 0.875227 9.59078 0 9.2254Z" fill="#F5F4F0"/>
<path d="M0 9.2254C1.89279 8.96285 4.82787 9.14305 6.7554 9.4672C5.13153 9.97204 5.19526 9.39185 4.25355 9.6144C4.33427 9.8662 4.3354 9.85708 4.49723 10.0701C4.82 10.0363 5.99388 9.8512 6.15783 9.96929L5.52178 10.4723C4.55296 10.4144 0.875227 9.59078 0 9.2254Z" fill="#F5F4F0"/>
<path d="M18.6938 34.3264C24.5876 34.3738 30.8072 34.4406 36.6746 34.6045C36.1288 36.2279 35.088 38.7459 34.776 40.2683C33.4277 39.5833 31.6248 39.221 30.1689 38.7457C25.4878 37.2174 20.7779 36.0949 16.0244 34.8526C16.8805 34.1973 17.5363 34.3983 18.6938 34.3264Z" fill="#F5F4F0"/>
<path d="M13.0513 33.7715C15.206 34.0964 16.7141 34.0896 18.6936 34.3261C17.5361 34.3979 16.8803 34.197 16.0242 34.8523C15.05 34.6347 13.9552 34.1896 13.0513 33.7715Z" fill="#F5F4F0"/>
</svg>
