<svg width="90" height="81" viewBox="0 0 90 81" fill="none" xmlns="http://www.w3.org/2000/svg">
<path d="M46.7246 15.4497C46.7873 15.4876 46.8501 15.5256 46.9128 15.5635C48.3357 18.8545 50.1938 23.6351 51.6334 26.7279C48.4609 25.7728 37.3049 25.1414 33.8525 25.3666C34.8787 26.344 36.2804 28.4188 37.1656 29.654C32.0378 33.2938 27.1835 37.3044 22.6418 41.6538C20.8187 43.3956 19.3298 44.7824 17.708 46.7137C17.9387 49.9837 17.7801 53.0637 17.7693 56.3315L17.8389 71.6369C16.6755 72.0316 15.5765 72.5406 14.4546 73.0389C12.3047 73.8751 9.85014 74.8989 7.69095 75.6417C7.41352 72.4498 7.65028 68.413 7.62566 65.1643C7.59658 61.3234 7.61753 57.4545 7.56583 53.6122C7.53251 51.1291 7.65507 48.0369 7.32227 45.6194C9.52424 43.3762 13.6991 40.1711 16.2576 38.0855L24.4631 31.5061C26.0781 30.2019 27.6589 28.7878 29.3271 27.5604C33.7781 24.2856 38.4521 21.3226 42.8935 18.0376C44.1269 17.1253 45.3362 16.1134 46.7246 15.4497Z" fill="#F5F4F0"/>
<path d="M79.1616 37.9922C80.7911 37.8117 88.3219 41.822 90.0002 42.7761C85.6802 47.9599 81.9431 49.6542 76.7765 53.3285C64.1928 62.2774 51.755 66.7819 36.7444 70.3921C34.3347 71.0428 31.7164 71.6991 29.2627 72.1346C30.6696 71.0479 32.2103 70.5728 33.8252 69.8295C35.9217 68.9346 37.9708 67.9829 40.0085 66.9687C46.8589 63.6223 53.173 59.4277 59.5154 55.2391C63.2602 52.7661 66.7688 50.7239 70.1159 47.6761C72.1683 45.8074 74.2768 44.5039 75.6873 41.952C74.8976 41.3492 73.9519 40.9138 73.0614 40.4668C74.8265 39.3185 77.082 38.3463 79.1616 37.9922Z" fill="#F5F4F0"/>
<path d="M78.323 58.8804C78.3376 58.8934 78.3545 58.9043 78.3669 58.9195C78.6146 59.2202 78.3074 78.7909 78.3195 80.9867C75.9059 80.8669 73.5068 80.8874 71.0924 80.8461L55.3274 80.6741C52.9974 80.67 50.6698 80.7438 48.3364 80.7197C37.6351 80.6158 26.9331 80.6121 16.2319 80.7088C10.9211 80.7373 5.83758 80.5763 0.475314 80.8011C0.299718 80.8413 0.177713 80.8093 0 80.7845L0.02897 80.6413C0.86127 80.1816 2.28454 80.0399 3.22826 79.8074C9.92075 78.1597 16.7018 78.1911 23.516 77.5491C25.3297 77.3782 27.184 77.3601 29.0036 77.2378C31.0802 77.0982 33.1564 76.8885 35.2375 76.7649C41.0597 76.4505 46.8861 76.2185 52.7149 76.0691C58.7634 75.9332 64.717 76.1443 70.8565 75.9508C70.8597 72.2223 70.7449 67.6261 71.0161 63.9907C71.8345 63.2868 73.629 62.3304 74.6248 61.6901C76.1051 60.7385 76.9976 60.002 78.323 58.8804Z" fill="#F5F4F0"/>
<path d="M71.0942 0C72.744 0.851019 76.4854 1.70984 78.3929 2.03418C78.4368 7.44758 78.4454 12.8612 78.4188 18.2748C78.375 21.8474 78.1527 27.6606 78.5099 31.0694C77.5487 31.6353 76.5431 32.3209 75.6037 32.9356C74.0797 33.9171 72.3159 35.1581 70.7617 36.0011C70.7768 34.3373 70.8747 32.6712 70.8809 30.9999C70.9196 20.6795 70.6442 10.3111 71.0942 0Z" fill="#F5F4F0"/>
<path d="M57.6525 18.3882C60.4054 19.0686 62.1214 19.4361 64.9745 19.4803C64.8487 26.5532 65.0705 33.6562 64.9477 40.7339C64.9238 42.1129 64.9601 43.3051 65.2046 44.6651C64.1749 45.1095 62.9029 46.0231 61.9466 46.6682C60.7203 47.491 58.7357 48.7657 57.4741 49.4428C57.8338 45.8353 57.5843 40.9449 57.5589 37.1997C57.5123 30.9291 57.5435 24.6581 57.6525 18.3882Z" fill="#F5F4F0"/>
<path d="M41.0099 34.1038C43.0192 34.8707 46.4766 35.3775 48.7122 35.7655C48.7763 42.0322 48.628 48.4046 48.6785 54.7205C47.8754 55.0852 46.8625 55.7464 46.0901 56.2247C44.6371 57.1146 42.4507 58.2046 40.8981 59.0334L40.9187 44.8865C40.9046 41.3251 40.8016 37.6462 41.0099 34.1038Z" fill="#F5F4F0"/>
<path d="M26.3441 49.2549C28.2719 49.6388 31.1926 49.7808 33.1216 49.887C32.9891 54.5245 33.064 59.1656 33.3459 63.7964C32.4711 64.1044 31.6399 64.519 30.8168 64.9425C29.1169 65.7249 27.7108 66.3926 26.0894 67.3149C26.5506 65.1895 26.379 62.396 26.3981 60.195C26.4294 56.5604 26.3166 52.8863 26.3441 49.2549Z" fill="#F5F4F0"/>
</svg>
